<svg width="512" height="512" viewBox="0 0 512 512" fill="none" xmlns="http://www.w3.org/2000/svg">
<circle class="fill-background" cx="256" cy="256" r="256" />
<path class="fill-foreground" d="M180.2 399.6C170.333 399.6 161.133 398.8 152.6 397.2C165.4 350.533 175.533 303.6 183 256.4C190.733 208.933 198.067 161.2 205 113.2C218.867 110.267 233.267 107.733 248.2 105.6C263.133 103.2 278.6 102 294.6 102C303.4 102 312.733 103.6 322.6 106.8C332.467 109.733 340.733 115.2 347.4 123.2C354.333 130.933 357.8 142 357.8 156.4C357.8 169.733 355 182 349.4 193.2C343.8 204.4 336.733 214 328.2 222C319.667 230 310.867 235.733 301.8 239.2C305.533 241.067 309.933 244.4 315 249.2C320.067 254 324.467 260.4 328.2 268.4C331.933 276.4 333.8 286.133 333.8 297.6C333.8 313.6 329 328.133 319.4 341.2C310.067 354 297.533 364.667 281.8 373.2C266.6 381.733 250.2 388.267 232.6 392.8C215 397.333 197.533 399.6 180.2 399.6ZM251.4 206.4C259.667 204.8 267.533 202.667 275 200C282.467 197.333 288.467 194.267 293 190.8C297.8 187.333 300.2 183.6 300.2 179.6C300.2 174.533 298.2 170.533 294.2 167.6C290.2 164.667 285.4 162.533 279.8 161.2C274.2 159.867 269 159.2 264.2 159.2H260.2C258.333 169.867 256.6 179.2 255 187.2C253.4 194.933 252.2 201.333 251.4 206.4ZM231 318.8C236.333 318.267 242.2 317.333 248.6 316C255 314.667 261.133 312.667 267 310C272.867 307.067 277.667 303.333 281.4 298.8C285.4 294 287.4 288.267 287.4 281.6C287.4 275.2 285.267 270.133 281 266.4C276.733 262.667 271.533 260 265.4 258.4C259.533 256.533 253.933 255.6 248.6 255.6H245.4C244.067 255.6 243 255.733 242.2 256C240.6 265.867 238.733 276.267 236.6 287.2C234.467 298.133 232.6 308.667 231 318.8Z" />
<style>
  .fill-background { fill: #191414; }
  .fill-foreground { fill: #FFFFFF; }

  @media (prefers-color-scheme: dark) {
  .fill-background { fill: #f2f3f3; }
  .fill-foreground { fill: #030303; }
  }
</style>
</svg>
